<svg xmlns="http://www.w3.org/2000/svg" viewBox="0 0 1160 269" width="400" height="93">
	<style>
		tspan { white-space:pre }
		.shp0 { fill: #0646a5 } 
		.shp1 { fill: #ff2e17 } 
	</style>
	<g id="Page 1" clip-path="url(#cp1)">
		<path id="Path 1" class="shp0" d="M161.12 95.84C179.02 89.03 191.77 71.76 191.77 51.47C191.77 25.22 170.49 3.95 144.25 3.95L0.41 3.95L0.41 42.36L90.88 42.36L90.88 71.64L0.41 71.64L0.41 143.24L90.88 143.24L90.88 166.67L0.41 166.67L0.41 214.83L176.79 214.83C176.79 214.83 206.08 197.26 206.08 158.86C206.08 130.09 176.15 106.08 161.12 95.84ZM243.5 60.65C225.65 60.65 208.9 65.32 194.34 73.44C190.09 82.71 183.34 90.77 174.76 96.6C192.27 110.27 213.58 132.28 213.58 158.86C213.58 201.02 181.99 220.46 180.65 221.26L178.87 222.33L162.63 222.33C181.08 246.93 210.38 262.92 243.5 262.92C299.35 262.92 344.64 217.64 344.64 161.78C344.64 105.93 299.35 60.65 243.5 60.65ZM511.99 243.47L452.11 155.6L452.11 141.28C452.11 141.28 494.41 140.64 494.41 95.73C494.41 40.4 442.99 34.55 442.99 34.55L304.36 34.55L304.36 75.55L393.53 75.55L393.53 102.89L334.65 102.89C345.66 119.87 352.13 140.07 352.13 161.78C352.13 193.66 338.25 222.27 316.32 242.17L378.56 242.17L378.56 160.16L410.45 160.16L410.45 243.47L511.99 243.47Z" />
		<path id="Path 2" class="shp1" d="M677.61 258.77L677.61 75.86L718.96 75.86L718.96 5.26L599.85 98.98L470.33 0.05L470.33 36.8C485.64 45.88 501.91 63.11 501.91 95.73C501.91 124.82 485.84 139.07 470.33 145.07L470.33 169.03C489.19 196.71 526.17 250.97 526.17 250.97L470.33 250.97L470.33 265.6L547.13 265.6L547.13 172.53L567.96 172.53L567.96 266.25L619.37 266.25L619.37 173.18L640.2 173.18L640.2 268.2L718.96 268.2L718.96 258.77L677.61 258.77Z" />
		<path id="Path 3" class="shp0" d="M825.18 208.97L752.8 208.97L752.8 182.29L802.91 182.29C795.85 170.81 790.59 158.13 787.69 144.54L751.49 144.54L751.49 119.81L785.05 119.81C785.05 119.7 785.03 119.59 785.03 119.48C785.03 106.9 786.99 94.77 790.59 83.36L685.11 83.36L685.11 251.28L845.22 251.28L845.22 223.57C838.02 219.4 831.33 214.5 825.18 208.97ZM897.65 125.01L984.07 38.58C963.74 18.81 936.03 6.59 905.42 6.59C843.07 6.59 792.53 57.13 792.53 119.48C792.53 181.83 843.07 232.38 905.42 232.38C933.21 232.38 958.62 222.29 978.28 205.64L897.65 125.01ZM1061.95 9.16L1061.95 101.58L1024.85 101.58L1024.85 74.25L959.02 74.25C952.14 81.12 945 88.26 938.29 94.97L938.29 155.04C961.54 178.28 989.35 206.1 989.35 206.1L983.13 211.36C969.97 222.5 954.63 230.55 938.29 235.21L938.29 259.74L1024.85 259.74L1024.85 177.73L1061.95 177.73L1061.95 261.04L1159.58 261.04L1159.58 9.16L1061.95 9.16Z" />
	</g>
</svg>